{
  "source": "C:\\Users\\Peter\\Desktop\\stuff\\MIUN\\quantitative_research\\video_compression\\videos\\BVI-HD\\BVI-HD_CDVL_videos\\ORIG\\Bookcase_1920x1080_60fps.mp4",
  "output": "C:\\Users\\Peter\\Desktop\\stuff\\MIUN\\quantitative_research\\video_compression\\compressed_videos\\BVI-HD\\av1\\3\\Bookcase_1920x1080_60fps_av1.mkv",
  "codec": "av1",
  "ok": "Input #0, mov,mp4,m4a,3gp,3g2,mj2, from 'C:\\Users\\Peter\\Desktop\\stuff\\MIUN\\quantitative_research\\video_compression\\videos\\BVI-HD\\BVI-HD_CDVL_videos\\ORIG\\Bookcase_1920x1080_60fps.mp4':\n  Metadata:\n    major_brand     : isom\n    minor_version   : 512\n    compatible_brands: isomiso2avc1mp41\n    encoder         : Lavf54.28.101\n  Duration: 00:00:05.00, start: 0.000000, bitrate: 336321 kb/s\n  Stream #0:0[0x1](und): Video: h264 (High 4:4:4 Predictive) (avc1 / 0x31637661), yuv420p(progressive), 1920x1080, 336316 kb/s, 60 fps, 60 tbr, 60 tbn (default)\n    Metadata:\n      handler_name    : VideoHandler\n      vendor_id       : [0][0][0][0]\n[out#0/matroska @ 00000263ae6cad80] Codec AVOption b:a (set bitrate (in bits/s)) has not been used for any stream. The most likely reason is either wrong type (e.g. a video option with no video streams) or that it is a private option of some decoder which was not actually used for any stream.\nStream mapping:\n  Stream #0:0 -> #0:0 (h264 (native) -> av1 (libsvtav1))\nPress [q] to stop, [?] for help\nSvt[info]: -------------------------------------------\nSvt[info]: SVT [version]:\tSVT-AV1 Encoder Lib v3.1.0-19-g6ecfe8ec\nSvt[info]: SVT [build]  :\tGCC 15.2.0\t 64 bit\nSvt[info]: LIB Build date: Aug 17 2025 11:37:13\nSvt[info]: -------------------------------------------\nSvt[info]: Level of Parallelism: 5\nSvt[info]: Number of PPCS 93\nSvt[info]: [asm level on system : up to avx2]\nSvt[info]: [asm level selected : up to avx2]\nSvt[info]: -------------------------------------------\nSvt[info]: SVT [config]: main profile\ttier (auto)\tlevel (auto)\nSvt[info]: SVT [config]: width / height / fps numerator / fps denominator \t\t: 1920 / 1080 / 60 / 1\nSvt[info]: SVT [config]: bit-depth / color format \t\t\t\t\t: 8 / YUV420\nSvt[info]: SVT [config]: preset / tune / pred struct \t\t\t\t\t: 4 / PSNR / random access\nSvt[info]: SVT [config]: gop size / mini-gop size / key-frame type \t\t\t: 321 / 16 / key frame\nSvt[info]: SVT [config]: BRC mode / target bitrate (kbps)\t\t\t\t: VBR / 3000 \nSvt[info]: SVT [config]: AQ mode / Variance Boost \t\t\t\t\t: 2 / 0\nSvt[info]: SVT [config]: sharpness / luminance-based QP bias \t\t\t\t: 0 / 0\nSvt[info]: SVT [config]: QP scale compress strength \t\t\t\t\t: 0\nSvt[info]: -------------------------------------------\nOutput #0, matroska, to 'C:\\Users\\Peter\\Desktop\\stuff\\MIUN\\quantitative_research\\video_compression\\compressed_videos\\BVI-HD\\av1\\3\\Bookcase_1920x1080_60fps_av1.mkv':\n  Metadata:\n    major_brand     : isom\n    minor_version   : 512\n    compatible_brands: isomiso2avc1mp41\n    encoder         : Lavf62.3.100\n  Stream #0:0(und): Video: av1 (AV01 / 0x31305641), yuv420p(tv, progressive), 1920x1080, q=2-31, 3000 kb/s, 60 fps, 1k tbn (default)\n    Metadata:\n      encoder         : Lavc62.11.100 libsvtav1\n      handler_name    : VideoHandler\n      vendor_id       : [0][0][0][0]\n    Side data:\n      cpb: bitrate max/min/avg: 0/0/3000000 buffer size: 3000000 vbv_delay: N/A\nframe=    0 fps=0.0 q=0.0 size=       0KiB time=N/A bitrate=N/A speed=N/A elapsed=0:00:01.03    \nframe=    0 fps=0.0 q=0.0 size=       0KiB time=N/A bitrate=N/A speed=N/A elapsed=0:00:01.58    \nframe=    0 fps=0.0 q=0.0 size=       0KiB time=N/A bitrate=N/A speed=N/A elapsed=0:00:02.14    \nframe=    0 fps=0.0 q=0.0 size=       0KiB time=N/A bitrate=N/A speed=N/A elapsed=0:00:02.67    \nframe=    0 fps=0.0 q=0.0 size=       0KiB time=N/A bitrate=N/A speed=N/A elapsed=0:00:03.19    \nframe=    1 fps=0.3 q=13.0 size=       1KiB time=00:00:00.00 bitrate=N/A speed=   0x elapsed=0:00:03.71    \nframe=    3 fps=0.7 q=38.0 size=       1KiB time=00:00:00.03 bitrate= 170.9kbits/s speed=0.00788x elapsed=0:00:04.23    \nframe=   10 fps=2.1 q=35.0 size=       1KiB time=00:00:00.15 bitrate=  38.0kbits/s speed=0.0314x elapsed=0:00:04.77    \nframe=   14 fps=2.6 q=34.0 size=       1KiB time=00:00:00.21 bitrate=  26.3kbits/s speed=0.0407x elapsed=0:00:05.31    \nframe=   20 fps=3.4 q=31.0 size=       1KiB time=00:00:00.31 bitrate=  18.0kbits/s speed=0.0542x elapsed=0:00:05.83    \nframe=   24 fps=3.7 q=30.0 size=       1KiB time=00:00:00.38 bitrate=  14.9kbits/s speed=0.0598x elapsed=0:00:06.41    \nframe=   28 fps=4.0 q=26.0 size=       1KiB time=00:00:00.45 bitrate=  12.7kbits/s speed=0.0648x elapsed=0:00:06.94    \nframe=   32 fps=4.3 q=26.0 size=       1KiB time=00:00:00.51 bitrate=  11.0kbits/s speed=0.0692x elapsed=0:00:07.46    \nframe=   37 fps=4.6 q=29.0 size=       1KiB time=00:00:00.60 bitrate=   9.5kbits/s speed=0.0751x elapsed=0:00:07.98    \nframe=   39 fps=4.6 q=25.0 size=       1KiB time=00:00:00.63 bitrate=   9.0kbits/s speed=0.0745x elapsed=0:00:08.49    \nframe=   43 fps=4.7 q=21.0 size=       1KiB time=00:00:00.70 bitrate=   8.1kbits/s speed=0.0773x elapsed=0:00:09.05    \nframe=   47 fps=4.9 q=23.0 size=       1KiB time=00:00:00.76 bitrate=   7.4kbits/s speed=0.08x elapsed=0:00:09.58    \nframe=   51 fps=5.0 q=21.0 size=       1KiB time=00:00:00.83 bitrate=   6.8kbits/s speed=0.0825x elapsed=0:00:10.10    \nframe=   55 fps=5.2 q=27.0 size=       1KiB time=00:00:00.88 bitrate=   6.4kbits/s speed=0.0832x elapsed=0:00:10.61    \nframe=   58 fps=5.2 q=23.0 size=       1KiB time=00:00:00.95 bitrate=   6.0kbits/s speed=0.0852x elapsed=0:00:11.15    \nframe=   63 fps=5.4 q=21.0 size=       1KiB time=00:00:01.03 bitrate=   5.5kbits/s speed=0.0886x elapsed=0:00:11.66    \nframe=   68 fps=5.6 q=22.0 size=       1KiB time=00:00:01.11 bitrate=   5.1kbits/s speed=0.0916x elapsed=0:00:12.19    \nframe=   71 fps=5.6 q=22.0 size=       1KiB time=00:00:01.16 bitrate=   4.9kbits/s speed=0.0918x elapsed=0:00:12.71    \nframe=   75 fps=5.7 q=24.0 size=       1KiB time=00:00:01.23 bitrate=   4.6kbits/s speed=0.0932x elapsed=0:00:13.22    \nframe=   78 fps=5.7 q=22.0 size=       1KiB time=00:00:01.28 bitrate=   4.4kbits/s speed=0.0932x elapsed=0:00:13.76    \nframe=   85 fps=5.9 q=27.0 size=       1KiB time=00:00:01.40 bitrate=   4.1kbits/s speed=0.0979x elapsed=0:00:14.29    \nframe=   87 fps=5.9 q=25.0 size=       1KiB time=00:00:01.43 bitrate=   4.0kbits/s speed=0.0968x elapsed=0:00:14.80    \nframe=   91 fps=5.9 q=25.0 size=       1KiB time=00:00:01.50 bitrate=   3.8kbits/s speed=0.0979x elapsed=0:00:15.32    \nframe=   95 fps=6.0 q=24.0 size=       1KiB time=00:00:01.56 bitrate=   3.6kbits/s speed=0.0988x elapsed=0:00:15.86    \nframe=  101 fps=6.2 q=24.0 size=       1KiB time=00:00:01.66 bitrate=   3.4kbits/s speed=0.102x elapsed=0:00:16.36    \nframe=  104 fps=6.2 q=26.0 size=       1KiB time=00:00:01.71 bitrate=   3.3kbits/s speed=0.102x elapsed=0:00:16.89    \nframe=  108 fps=6.2 q=26.0 size=       1KiB time=00:00:01.78 bitrate=   3.2kbits/s speed=0.102x elapsed=0:00:17.44    \nframe=  112 fps=6.2 q=25.0 size=       1KiB time=00:00:01.85 bitrate=   3.1kbits/s speed=0.103x elapsed=0:00:17.99    \nframe=  117 fps=6.3 q=24.0 size=       1KiB time=00:00:01.91 bitrate=   3.0kbits/s speed=0.104x elapsed=0:00:18.51    \nframe=  120 fps=6.3 q=21.0 size=       1KiB time=00:00:01.98 bitrate=   2.9kbits/s speed=0.104x elapsed=0:00:19.05    \nframe=  125 fps=6.4 q=29.0 size=       1KiB time=00:00:02.06 bitrate=   2.8kbits/s speed=0.105x elapsed=0:00:19.61    \nframe=  130 fps=6.5 q=27.0 size=       1KiB time=00:00:02.15 bitrate=   2.6kbits/s speed=0.107x elapsed=0:00:20.15    \nframe=  135 fps=6.5 q=27.0 size=       1KiB time=00:00:02.23 bitrate=   2.6kbits/s speed=0.108x elapsed=0:00:20.72    \nframe=  139 fps=6.5 q=27.0 size=       1KiB time=00:00:02.28 bitrate=   2.5kbits/s speed=0.107x elapsed=0:00:21.32    \nframe=  143 fps=6.5 q=27.0 size=       1KiB time=00:00:02.36 bitrate=   2.4kbits/s speed=0.108x elapsed=0:00:21.94    \nframe=  148 fps=6.6 q=30.0 size=       1KiB time=00:00:02.45 bitrate=   2.3kbits/s speed=0.109x elapsed=0:00:22.48    \nframe=  150 fps=6.5 q=28.0 size=       1KiB time=00:00:02.48 bitrate=   2.3kbits/s speed=0.108x elapsed=0:00:23.06    \nframe=  153 fps=6.5 q=23.0 size=       1KiB time=00:00:02.53 bitrate=   2.2kbits/s speed=0.107x elapsed=0:00:23.61    \nframe=  157 fps=6.5 q=27.0 size=       1KiB time=00:00:02.58 bitrate=   2.2kbits/s speed=0.107x elapsed=0:00:24.17    \nframe=  160 fps=6.4 q=28.0 size=       1KiB time=00:00:02.65 bitrate=   2.1kbits/s speed=0.107x elapsed=0:00:24.80    \nframe=  166 fps=6.5 q=31.0 size=       1KiB time=00:00:02.73 bitrate=   2.1kbits/s speed=0.108x elapsed=0:00:25.35    \nframe=  167 fps=6.4 q=30.0 size=       1KiB time=00:00:02.75 bitrate=   2.1kbits/s speed=0.106x elapsed=0:00:25.97    \nframe=  170 fps=6.3 q=32.0 size=       1KiB time=00:00:02.81 bitrate=   2.0kbits/s speed=0.105x elapsed=0:00:26.77    \nframe=  174 fps=6.3 q=32.0 size=       1KiB time=00:00:02.88 bitrate=   2.0kbits/s speed=0.105x elapsed=0:00:27.49    \nframe=  177 fps=6.3 q=19.0 size=       1KiB time=00:00:02.91 bitrate=   2.0kbits/s speed=0.103x elapsed=0:00:28.25    \nframe=  181 fps=6.3 q=34.0 size=       1KiB time=00:00:03.00 bitrate=   1.9kbits/s speed=0.104x elapsed=0:00:28.87    \nframe=  183 fps=6.2 q=34.0 size=       1KiB time=00:00:03.03 bitrate=   1.9kbits/s speed=0.103x elapsed=0:00:29.53    \nframe=  187 fps=6.2 q=36.0 size=       1KiB time=00:00:03.10 bitrate=   1.8kbits/s speed=0.103x elapsed=0:00:30.12    \nframe=  190 fps=6.2 q=35.0 size=       1KiB time=00:00:03.13 bitrate=   1.8kbits/s speed=0.102x elapsed=0:00:30.73    \nframe=  195 fps=6.2 q=37.0 size=       1KiB time=00:00:03.23 bitrate=   1.8kbits/s speed=0.103x elapsed=0:00:31.30    \nframe=  200 fps=6.3 q=34.0 size=       1KiB time=00:00:03.30 bitrate=   1.7kbits/s speed=0.103x elapsed=0:00:31.89    \nframe=  209 fps=6.4 q=16.0 size=       1KiB time=00:00:03.46 bitrate=   1.6kbits/s speed=0.107x elapsed=0:00:32.44    \nframe=  213 fps=6.5 q=33.0 size=       1KiB time=00:00:03.53 bitrate=   1.6kbits/s speed=0.107x elapsed=0:00:32.97    \nframe=  217 fps=6.5 q=28.0 size=       1KiB time=00:00:03.60 bitrate=   1.6kbits/s speed=0.107x elapsed=0:00:33.54    \nframe=  225 fps=6.6 q=18.0 size=       1KiB time=00:00:03.70 bitrate=   1.5kbits/s speed=0.108x elapsed=0:00:34.12    \nframe=  233 fps=6.7 q=31.0 size=       1KiB time=00:00:03.86 bitrate=   1.5kbits/s speed=0.112x elapsed=0:00:34.66    \nframe=  237 fps=6.7 q=29.0 size=       1KiB time=00:00:03.93 bitrate=   1.4kbits/s speed=0.112x elapsed=0:00:35.17    \nframe=  245 fps=6.9 q=34.0 size=       1KiB time=00:00:04.06 bitrate=   1.4kbits/s speed=0.114x elapsed=0:00:35.70    \nframe=  249 fps=6.9 q=29.0 size=       1KiB time=00:00:04.13 bitrate=   1.4kbits/s speed=0.114x elapsed=0:00:36.25    \nframe=  259 fps=7.0 q=38.0 size=       1KiB time=00:00:04.30 bitrate=   1.3kbits/s speed=0.117x elapsed=0:00:36.80    \nframe=  267 fps=7.2 q=38.0 size=       1KiB time=00:00:04.43 bitrate=   1.3kbits/s speed=0.119x elapsed=0:00:37.32    \nframe=  277 fps=7.3 q=35.0 size=       1KiB time=00:00:04.60 bitrate=   1.2kbits/s speed=0.121x elapsed=0:00:37.87    \nframe=  285 fps=7.4 q=40.0 size=       1KiB time=00:00:04.73 bitrate=   1.2kbits/s speed=0.123x elapsed=0:00:38.43    \n[out#0/matroska @ 00000263ae6cad80] video:1702KiB audio:0KiB subtitle:0KiB other streams:0KiB global headers:0KiB muxing overhead: 0.122011%\nframe=  300 fps=7.7 q=42.0 Lsize=    1704KiB time=00:00:04.98 bitrate=2802.0kbits/s speed=0.129x elapsed=0:00:38.76    \n",
  "seconds": 39.163214445114136,
  "probe_out": {}
}